<svg width="240" height="235" viewBox="0 0 1440 1000" fill="none" xmlns="http://www.w3.org/2000/svg">
<path d="M474.687 227.423H511.773C519.347 227.423 525.135 229.032 529.136 232.251C534.209 235.898 536.818 241.799 536.961 249.953C536.961 256.748 534.781 262.469 530.422 267.118C525.992 272.125 519.347 274.7 510.486 274.843H474.687V227.423ZM451 362.71H474.687V295.871H504.913L537.175 362.71H565.364L529.136 293.296C549.001 285.643 559.076 271.195 559.362 249.953C558.933 235.505 553.752 224.383 543.82 216.587C535.603 209.721 524.992 206.287 511.987 206.287H451V362.71Z" fill="black"/>
<path d="M669.224 315.504V297.051C669.081 282.389 664.544 270.873 655.612 262.505C646.823 254.28 636.069 250.096 623.35 249.953C618.062 249.953 612.703 250.918 607.272 252.849C601.77 254.781 596.804 257.928 592.374 262.291C588.015 266.582 584.442 272.447 581.656 279.885C578.869 287.181 577.476 296.336 577.476 307.351C577.476 318.794 579.083 328.093 582.299 335.245C585.228 342.683 589.051 348.477 593.767 352.625C596.197 354.628 598.805 356.309 601.592 357.668C604.236 359.241 606.951 360.493 609.738 361.423C615.311 363.139 621.027 363.998 626.887 363.998C642.25 364.141 655.612 358.133 666.973 345.974L650.789 332.134C643.643 339.358 635.533 342.97 626.458 342.97C618.669 342.97 612.381 340.609 607.594 335.889C602.449 331.24 599.877 324.445 599.877 315.504H669.224ZM599.877 297.051C600.305 288.397 602.628 281.852 606.844 277.418C611.131 273.198 616.633 271.088 623.35 271.088C630.067 271.088 635.569 273.198 639.856 277.418C644.215 281.852 646.537 288.397 646.823 297.051H599.877Z" fill="black"/>
<path d="M751.112 362.71H773.513V286.644C773.37 273.055 769.118 263.471 760.758 257.892C752.398 252.456 741.215 249.81 727.21 249.953C710.632 249.667 698.092 255.102 689.589 266.26L707.167 279.671C709.096 276.452 711.74 274.164 715.098 272.805C718.314 271.66 722.708 271.088 728.282 271.088C743.644 270.802 751.254 275.558 751.112 285.357V297.051H720.136C708.274 297.194 699.271 300.413 693.126 306.707C686.981 312.858 683.908 320.618 683.908 329.988C683.908 339.787 687.445 347.833 694.519 354.127C701.236 360.564 710.811 363.854 723.244 363.998C730.818 363.998 736.749 363.068 741.036 361.208C745.395 359.42 748.611 356.631 750.683 352.84H751.112V362.71ZM751.112 323.551C751.112 331.919 749.361 337.283 745.86 339.644C742.001 342.004 735.391 343.113 726.031 342.97C718.599 342.97 713.276 341.503 710.061 338.571C706.702 335.924 705.023 332.706 705.023 328.915C704.88 320.261 711.311 315.79 724.316 315.504H751.112V323.551Z" fill="black"/>
<path d="M867.833 329.988C862.189 337.569 854.65 341.432 845.218 341.575C826.211 341.932 816.564 330.453 816.279 307.136C816.564 283.676 826.211 272.089 845.218 272.375C854.65 272.662 862.189 276.56 867.833 284.07L884.34 269.371C879.481 263.507 873.764 258.822 867.19 255.317C860.617 251.884 853.007 250.096 844.36 249.953C831.213 249.81 819.673 254.208 809.74 263.149C799.451 272.232 794.163 286.895 793.877 307.136C794.163 327.163 799.451 341.646 809.74 350.587C819.673 359.527 831.213 363.998 844.36 363.998C853.007 363.854 860.617 361.959 867.19 358.311C873.764 354.807 879.481 350.265 884.34 344.686L867.833 329.988Z" fill="black"/>
<path d="M901.274 251.347H890.127V268.406H901.274V335.245C901.274 344.042 903.847 350.766 908.992 355.415C913.993 360.278 920.424 362.71 928.285 362.71H939.967V341.575H931.607C926.177 341.718 923.533 338.964 923.676 333.314V268.406H939.967V251.347H923.676V217.445H901.274V251.347Z" fill="black"/>
<path d="M1096.13 318.937C1089.56 333.171 1079.63 340.287 1066.34 340.287C1060.76 340.287 1055.97 339.107 1051.97 336.747C1047.9 334.744 1044.61 332.134 1042.11 328.915C1039.04 325.553 1037 321.155 1036 315.719C1034.86 310.283 1034.29 299.876 1034.29 284.499C1034.29 269.121 1034.86 258.643 1036 253.064C1037 247.771 1039.04 243.444 1042.11 240.082C1044.61 236.864 1047.9 234.182 1051.97 232.036C1055.97 229.962 1060.76 228.853 1066.34 228.71C1073.91 228.853 1080.34 231.035 1085.63 235.255C1090.7 239.689 1094.2 245.053 1096.13 251.347H1121.21C1118.71 238.259 1112.71 227.28 1103.21 218.411C1093.7 209.613 1081.41 205.143 1066.34 205C1054.05 205.143 1043.79 208.076 1035.57 213.797C1027.21 219.448 1021.14 225.885 1017.35 233.109C1015 236.9 1013.24 241.871 1012.1 248.022C1011.03 254.173 1010.49 266.332 1010.49 284.499C1010.49 302.38 1011.03 314.467 1012.1 320.761C1012.67 324.123 1013.39 326.912 1014.25 329.13C1015.17 331.275 1016.21 333.528 1017.35 335.889C1021.14 343.113 1027.21 349.478 1035.57 354.986C1043.79 360.707 1054.05 363.711 1066.34 363.998C1079.91 363.998 1091.67 360.135 1101.6 352.411C1111.25 344.615 1117.78 333.457 1121.21 318.937H1096.13Z" fill="black"/>
<path d="M1136 362.71H1158.41V296.407C1158.41 288.611 1160.51 282.675 1164.73 278.598C1168.87 274.45 1174.16 272.375 1180.59 272.375C1187.02 272.375 1192.28 274.45 1196.35 278.598C1200.49 282.675 1202.57 288.611 1202.57 296.407V362.71H1224.97V288.683C1224.61 275.952 1220.64 266.296 1213.07 259.716C1205.42 253.207 1196.99 249.953 1187.77 249.953C1175.84 249.953 1166.19 254.351 1158.83 263.149H1158.41V206.287H1136V362.71Z" fill="black"/>
<path d="M1340.19 315.504V297.051C1340.04 282.389 1335.51 270.873 1326.58 262.505C1317.79 254.28 1307.03 250.096 1294.31 249.953C1289.03 249.953 1283.67 250.918 1278.24 252.849C1272.73 254.781 1267.77 257.928 1263.34 262.291C1258.98 266.582 1255.41 272.447 1252.62 279.885C1249.83 287.181 1248.44 296.336 1248.44 307.351C1248.44 318.794 1250.05 328.093 1253.26 335.245C1256.19 342.683 1260.01 348.477 1264.73 352.625C1267.16 354.628 1269.77 356.309 1272.56 357.668C1275.2 359.241 1277.91 360.493 1280.7 361.423C1286.27 363.139 1291.99 363.998 1297.85 363.998C1313.21 364.141 1326.58 358.133 1337.94 345.974L1321.75 332.134C1314.61 339.358 1306.5 342.97 1297.42 342.97C1289.63 342.97 1283.35 340.609 1278.56 335.889C1273.41 331.24 1270.84 324.445 1270.84 315.504H1340.19ZM1270.84 297.051C1271.27 288.397 1273.59 281.852 1277.81 277.418C1282.09 273.198 1287.6 271.088 1294.31 271.088C1301.03 271.088 1306.53 273.198 1310.82 277.418C1315.18 281.852 1317.5 288.397 1317.79 297.051H1270.84Z" fill="black"/>
<path d="M1367.2 362.71H1389.6V268.406H1412V251.347H1389.6V236.649C1389.31 230.284 1392.53 227.208 1399.25 227.423H1412V206.287H1397.53C1388.88 206.287 1381.7 208.612 1375.99 213.261C1370.13 218.268 1367.2 226.064 1367.2 236.649V251.347H1355.94V268.406H1367.2V362.71Z" fill="black"/>
<g filter="url(#filter0_d)">
<path fill-rule="evenodd" clip-rule="evenodd" d="M88.5997 398.375H284.85V418H88.5997V398.375Z" fill="#00A3FF"/>
<path fill-rule="evenodd" clip-rule="evenodd" d="M273.723 167.502C269.244 149.353 258.809 133.231 244.087 121.718C229.365 110.205 211.208 103.966 192.522 104C173.264 103.96 154.583 110.582 139.645 122.743C124.707 134.904 114.43 151.857 110.555 170.731C105.215 169.249 99.7061 168.462 94.165 168.388C85.606 168.383 77.1298 170.066 69.2213 173.34C61.3128 176.615 54.127 181.417 48.0749 187.472C42.0227 193.527 37.2229 200.716 33.9499 208.628C30.6768 216.54 28.9948 225.02 29 233.583C29 269.586 52.3547 298.778 88.3607 298.778C88.7346 298.778 89.0691 298.68 89.4626 298.68V377.043H283.757V310.431C320.806 307.675 343 276.79 343 239.036C342.969 220.455 335.729 202.612 322.806 189.267C309.882 175.923 292.285 168.12 273.723 167.502Z" fill="#00A3FF"/>
<path d="M236.403 236.637C234.758 236.081 233.112 235.556 231.467 235.061C231.741 233.918 231.985 232.774 232.228 231.631C235.977 213.21 233.508 198.405 225.189 193.522C217.175 188.855 204.101 193.707 190.876 205.39C189.565 206.534 188.286 207.739 187.067 208.945C186.244 208.141 185.391 207.337 184.537 206.565C170.672 194.078 156.776 188.824 148.457 193.738C140.472 198.436 138.096 212.375 141.448 229.807C141.783 231.538 142.149 233.238 142.575 234.968C140.625 235.525 138.705 236.143 136.907 236.792C120.634 242.51 108.963 251.535 108.963 260.869C108.963 270.512 121.396 280.186 138.309 286.058C139.68 286.522 141.051 286.985 142.453 287.387C141.996 289.242 141.6 291.065 141.234 292.951C138.035 310.104 140.533 323.703 148.518 328.37C156.745 333.192 170.58 328.247 184.05 316.286C185.116 315.327 186.183 314.338 187.249 313.288C188.59 314.617 189.992 315.884 191.394 317.12C204.437 328.494 217.327 333.099 225.281 328.432C233.508 323.611 236.19 308.991 232.716 291.189C232.442 289.829 232.137 288.438 231.802 287.016C232.777 286.738 233.722 286.429 234.666 286.12C252.25 280.217 264.988 270.666 264.988 260.869C264.988 251.504 252.981 242.417 236.403 236.637ZM195.173 210.397C206.509 200.383 217.083 196.458 221.898 199.271C227.048 202.269 229.029 214.384 225.799 230.301C225.585 231.352 225.372 232.372 225.098 233.392C218.333 231.847 211.476 230.734 204.589 230.116C200.627 224.367 196.3 218.866 191.607 213.704C192.796 212.561 193.954 211.479 195.173 210.397ZM159.915 276.91C161.469 279.599 163.053 282.288 164.729 284.915C159.976 284.389 155.252 283.617 150.59 282.597C151.931 278.146 153.607 273.541 155.557 268.843C156.959 271.563 158.391 274.252 159.915 276.91ZM150.681 239.728C155.069 238.739 159.732 237.936 164.577 237.317C162.962 239.883 161.377 242.51 159.884 245.168C158.391 247.795 156.928 250.484 155.557 253.204C153.637 248.599 152.022 244.086 150.681 239.728ZM159.031 261.023C161.042 256.758 163.236 252.586 165.552 248.475C167.868 244.364 170.367 240.377 172.988 236.452C177.559 236.112 182.221 235.927 186.975 235.927C191.729 235.927 196.422 236.112 200.963 236.452C203.553 240.346 206.021 244.333 208.368 248.413C210.714 252.493 212.908 256.665 214.98 260.9C212.939 265.165 210.745 269.368 208.398 273.51C206.082 277.621 203.614 281.608 201.024 285.564C196.483 285.904 191.76 286.058 186.975 286.058C182.191 286.058 177.559 285.904 173.079 285.626C170.428 281.7 167.929 277.682 165.583 273.572C163.236 269.461 161.073 265.289 159.031 261.023ZM214.066 276.848C215.62 274.128 217.083 271.377 218.515 268.596C220.466 273.077 222.172 277.621 223.665 282.288C218.942 283.369 214.158 284.204 209.343 284.76C210.988 282.164 212.543 279.506 214.066 276.848ZM218.454 253.204C217.022 250.484 215.559 247.764 214.036 245.106C212.543 242.479 210.988 239.883 209.373 237.317C214.28 237.936 218.972 238.77 223.361 239.79C221.959 244.364 220.313 248.815 218.454 253.204ZM187.036 218.433C190.236 221.957 193.253 225.665 196.056 229.498C190.023 229.22 183.958 229.22 177.925 229.498C180.911 225.511 183.989 221.802 187.036 218.433ZM151.687 199.487C156.806 196.458 168.173 200.785 180.149 211.541C180.911 212.221 181.673 212.963 182.465 213.704C177.742 218.866 173.384 224.367 169.392 230.116C162.505 230.734 155.679 231.816 148.914 233.33C148.518 231.754 148.182 230.147 147.847 228.54C144.983 213.581 146.872 202.299 151.687 199.487ZM144.221 280.959C142.941 280.588 141.691 280.186 140.442 279.753C133.951 277.682 126.577 274.406 121.244 270.11C118.166 267.947 116.094 264.609 115.515 260.869C115.515 255.213 125.144 247.98 139.04 243.066C140.777 242.448 142.545 241.892 144.312 241.366C146.384 248.073 148.883 254.656 151.778 261.023C148.853 267.483 146.323 274.159 144.221 280.959ZM179.753 311.248C174.725 315.915 168.904 319.624 162.566 322.158C159.183 323.796 155.283 323.951 151.809 322.56C146.963 319.716 144.952 308.806 147.695 294.125C148.03 292.394 148.396 290.663 148.822 288.964C155.648 290.447 162.535 291.467 169.514 291.992C173.536 297.772 177.955 303.305 182.678 308.497C181.703 309.455 180.728 310.382 179.753 311.248ZM187.219 303.737C184.111 300.337 181.002 296.567 177.985 292.518C180.911 292.641 183.928 292.703 186.975 292.703C190.114 292.703 193.192 292.641 196.239 292.487C193.436 296.412 190.419 300.152 187.219 303.737ZM227.048 313.009C226.774 316.78 224.945 320.304 222.02 322.683C217.175 325.527 206.844 321.818 195.691 312.113C194.411 311 193.131 309.795 191.82 308.559C196.483 303.335 200.78 297.803 204.68 291.992C211.659 291.405 218.607 290.323 225.463 288.747C225.768 290.014 226.042 291.282 226.286 292.518C227.779 299.194 228.023 306.148 227.048 313.009ZM232.594 279.784C231.741 280.062 230.888 280.34 230.004 280.588C227.871 273.85 225.25 267.267 222.233 260.869C225.159 254.564 227.627 248.073 229.699 241.428C231.284 241.892 232.807 242.386 234.27 242.881C248.471 247.826 258.436 255.182 258.436 260.807C258.436 266.865 247.801 274.684 232.594 279.784ZM186.975 275.148C194.685 275.148 200.932 268.812 200.932 260.992C200.932 253.173 194.685 246.837 186.975 246.837C179.265 246.837 173.018 253.173 173.018 260.992C173.018 268.812 179.265 275.148 186.975 275.148Z" fill="white"/>
</g>
<defs>
<filter id="filter0_d" x="26" y="101" width="322" height="322" filterUnits="userSpaceOnUse" color-interpolation-filters="sRGB">
<feFlood flood-opacity="0" result="BackgroundImageFix"/>
<feColorMatrix in="SourceAlpha" type="matrix" values="0 0 0 0 0 0 0 0 0 0 0 0 0 0 0 0 0 0 127 0"/>
<feOffset dx="1" dy="1"/>
<feGaussianBlur stdDeviation="2"/>
<feColorMatrix type="matrix" values="0 0 0 0 0 0 0 0 0 0 0 0 0 0 0 0 0 0 0.25 0"/>
<feBlend mode="normal" in2="BackgroundImageFix" result="effect1_dropShadow"/>
<feBlend mode="normal" in="SourceGraphic" in2="effect1_dropShadow" result="shape"/>
</filter>
</defs>
</svg>
