<svg width="615" height="521" viewBox="0 0 615 521" fill="none" xmlns="http://www.w3.org/2000/svg">
<g filter="url(#filter0_d)">
<path fill-rule="evenodd" clip-rule="evenodd" d="M183.544 435.125H432.294V460H183.544V435.125Z" fill="#00A3FF"/>
<path fill-rule="evenodd" clip-rule="evenodd" d="M418.19 142.49C412.513 119.485 399.286 99.0512 380.626 84.4582C361.966 69.8652 338.952 61.9573 315.267 62.0002C290.856 61.9495 267.179 70.3422 248.244 85.7566C229.31 101.171 216.284 122.659 211.372 146.582C204.603 144.704 197.621 143.706 190.598 143.613C179.749 143.606 169.005 145.739 158.981 149.89C148.957 154.04 139.849 160.127 132.178 167.802C124.506 175.476 118.423 184.589 114.274 194.618C110.125 204.646 107.993 215.395 108 226.249C108 271.883 137.602 308.884 183.241 308.884C183.715 308.884 184.138 308.76 184.637 308.76V408.087H430.909V323.655C477.869 320.162 506 281.015 506 233.16C505.961 209.608 496.784 186.992 480.404 170.078C464.023 153.163 441.718 143.273 418.19 142.49Z" fill="#00A3FF"/>
<path d="M370.887 230.12C368.801 229.415 366.715 228.749 364.63 228.122C364.977 226.673 365.286 225.223 365.595 223.774C370.346 200.425 367.218 181.66 356.673 175.47C346.514 169.555 329.944 175.705 313.18 190.514C311.519 191.963 309.897 193.491 308.352 195.019C307.309 194 306.227 192.982 305.146 192.002C287.571 176.176 269.958 169.516 259.413 175.745C249.293 181.699 246.28 199.367 250.529 221.462C250.954 223.656 251.417 225.811 251.958 228.005C249.486 228.71 247.053 229.493 244.774 230.316C224.148 237.563 209.354 249.003 209.354 260.834C209.354 273.056 225.113 285.318 246.551 292.762C248.289 293.349 250.027 293.937 251.804 294.446C251.224 296.797 250.722 299.108 250.259 301.498C246.203 323.24 249.37 340.477 259.49 346.393C269.919 352.504 287.455 346.236 304.528 331.075C305.88 329.861 307.232 328.607 308.584 327.275C310.283 328.96 312.06 330.566 313.837 332.133C330.369 346.55 346.707 352.387 356.789 346.471C367.218 340.36 370.617 321.83 366.213 299.265C365.866 297.541 365.479 295.778 365.055 293.976C366.291 293.624 367.488 293.232 368.685 292.84C390.972 285.358 407.118 273.252 407.118 260.834C407.118 248.964 391.899 237.446 370.887 230.12ZM318.626 196.86C332.995 184.167 346.398 179.192 352.501 182.757C359.029 186.557 361.54 201.914 357.445 222.089C357.175 223.421 356.904 224.714 356.557 226.007C347.982 224.048 339.291 222.638 330.562 221.854C325.54 214.567 320.055 207.594 314.107 201.052C315.614 199.602 317.081 198.231 318.626 196.86ZM273.936 281.166C275.906 284.574 277.915 287.982 280.039 291.312C274.014 290.646 268.027 289.667 262.117 288.374C263.816 282.733 265.941 276.896 268.413 270.941C270.19 274.388 272.005 277.797 273.936 281.166ZM262.233 234.038C267.795 232.784 273.705 231.766 279.846 230.982C277.799 234.234 275.79 237.563 273.898 240.933C272.005 244.262 270.151 247.671 268.413 251.118C265.979 245.281 263.932 239.561 262.233 234.038ZM272.816 261.03C275.365 255.623 278.147 250.335 281.082 245.124C284.018 239.914 287.185 234.86 290.507 229.885C296.301 229.454 302.21 229.219 308.236 229.219C314.262 229.219 320.21 229.454 325.965 229.885C329.248 234.821 332.377 239.875 335.351 245.046C338.325 250.217 341.107 255.506 343.733 260.873C341.145 266.279 338.364 271.607 335.39 276.856C332.454 282.067 329.326 287.12 326.042 292.135C320.287 292.566 314.3 292.762 308.236 292.762C302.172 292.762 296.301 292.566 290.623 292.213C287.262 287.238 284.095 282.145 281.121 276.935C278.147 271.725 275.404 266.436 272.816 261.03ZM342.574 281.087C344.544 277.64 346.398 274.153 348.214 270.628C350.686 276.308 352.849 282.067 354.741 287.982C348.754 289.353 342.69 290.411 336.587 291.116C338.673 287.826 340.643 284.457 342.574 281.087ZM348.136 251.118C346.321 247.671 344.467 244.223 342.536 240.854C340.643 237.524 338.673 234.234 336.626 230.982C342.845 231.766 348.793 232.823 354.355 234.116C352.578 239.914 350.493 245.555 348.136 251.118ZM308.313 207.046C312.369 211.512 316.193 216.213 319.746 221.071C312.099 220.718 304.412 220.718 296.764 221.071C300.549 216.017 304.451 211.316 308.313 207.046ZM263.507 183.031C269.996 179.192 284.404 184.677 299.584 198.31C300.549 199.172 301.515 200.112 302.519 201.052C296.532 207.594 291.009 214.567 285.949 221.854C277.219 222.638 268.567 224.009 259.992 225.928C259.49 223.93 259.065 221.893 258.64 219.856C255.01 200.895 257.404 186.596 263.507 183.031ZM254.044 286.298C252.422 285.828 250.838 285.318 249.254 284.77C241.027 282.145 231.68 277.993 224.92 272.547C221.019 269.805 218.392 265.574 217.659 260.834C217.659 253.665 229.864 244.498 247.478 238.269C249.679 237.485 251.92 236.78 254.16 236.114C256.786 244.615 259.954 252.959 263.623 261.03C259.915 269.217 256.709 277.679 254.044 286.298ZM299.082 324.69C292.708 330.605 285.331 335.306 277.297 338.519C273.009 340.595 268.065 340.791 263.662 339.028C257.52 335.424 254.971 321.595 258.447 302.987C258.872 300.793 259.336 298.599 259.877 296.444C268.529 298.325 277.258 299.617 286.103 300.283C291.202 307.609 296.803 314.622 302.79 321.203C301.554 322.418 300.318 323.593 299.082 324.69ZM308.545 315.17C304.605 310.861 300.665 306.081 296.841 300.949C300.549 301.106 304.373 301.184 308.236 301.184C312.214 301.184 316.116 301.106 319.978 300.91C316.425 305.886 312.601 310.626 308.545 315.17ZM359.029 326.923C358.681 331.702 356.364 336.168 352.656 339.185C346.514 342.789 333.42 338.088 319.283 325.787C317.661 324.376 316.038 322.848 314.377 321.281C320.287 314.661 325.733 307.648 330.678 300.283C339.523 299.539 348.33 298.168 357.02 296.17C357.407 297.776 357.754 299.382 358.063 300.949C359.956 309.411 360.265 318.226 359.029 326.923ZM366.059 284.809C364.977 285.162 363.896 285.514 362.776 285.828C360.072 277.287 356.75 268.943 352.926 260.834C356.634 252.842 359.763 244.615 362.389 236.192C364.398 236.78 366.329 237.407 368.183 238.034C386.183 244.302 398.813 253.625 398.813 260.755C398.813 268.434 385.333 278.345 366.059 284.809ZM308.236 278.933C318.008 278.933 325.927 270.902 325.927 260.99C325.927 251.079 318.008 243.048 308.236 243.048C298.464 243.048 290.545 251.079 290.545 260.99C290.545 270.902 298.464 278.933 308.236 278.933Z" fill="white"/>
</g>
<defs>
<filter id="filter0_d" x="105" y="59" width="406" height="406" filterUnits="userSpaceOnUse" color-interpolation-filters="sRGB">
<feFlood flood-opacity="0" result="BackgroundImageFix"/>
<feColorMatrix in="SourceAlpha" type="matrix" values="0 0 0 0 0 0 0 0 0 0 0 0 0 0 0 0 0 0 127 0"/>
<feOffset dx="1" dy="1"/>
<feGaussianBlur stdDeviation="2"/>
<feColorMatrix type="matrix" values="0 0 0 0 0 0 0 0 0 0 0 0 0 0 0 0 0 0 0.25 0"/>
<feBlend mode="normal" in2="BackgroundImageFix" result="effect1_dropShadow"/>
<feBlend mode="normal" in="SourceGraphic" in2="effect1_dropShadow" result="shape"/>
</filter>
</defs>
</svg>
