<svg width="615" height="521" viewBox="0 0 615 521" fill="none" xmlns="http://www.w3.org/2000/svg"><g filter="url(#filter0_d)"><path fill-rule="evenodd" clip-rule="evenodd" d="M183.544 435.125h248.75V460h-248.75v-24.875zM418.19 142.49a105.869 105.869 0 00-37.564-58.032A105.784 105.784 0 00315.267 62a105.812 105.812 0 00-67.023 23.757 105.896 105.896 0 00-36.872 60.825 81.754 81.754 0 00-20.774-2.969 82.53 82.53 0 00-58.42 24.189A82.599 82.599 0 00108 226.249c0 45.634 29.602 82.635 75.241 82.635.474 0 .897-.124 1.396-.124v99.327h246.272v-84.432c46.96-3.493 75.091-42.64 75.091-90.495a90.894 90.894 0 00-25.596-63.082 90.81 90.81 0 00-62.214-27.588z" fill="#00A3FF"/><path d="M370.887 230.12a194.347 194.347 0 00-6.257-1.998c.347-1.449.656-2.899.965-4.348 4.751-23.349 1.623-42.114-8.922-48.304-10.159-5.915-26.729.235-43.493 15.044a106.197 106.197 0 00-4.828 4.505 118.67 118.67 0 00-3.206-3.017c-17.575-15.826-35.188-22.486-45.733-16.257-10.12 5.954-13.133 23.622-8.884 45.717.425 2.194.888 4.349 1.429 6.543a110.742 110.742 0 00-7.184 2.311c-20.626 7.247-35.42 18.687-35.42 30.518 0 12.222 15.759 24.484 37.197 31.928 1.738.587 3.476 1.175 5.253 1.684a141.683 141.683 0 00-1.545 7.052c-4.056 21.742-.889 38.979 9.231 44.895 10.429 6.111 27.965-.157 45.038-15.318a119.58 119.58 0 004.056-3.8c1.699 1.685 3.476 3.291 5.253 4.858 16.532 14.417 32.87 20.254 42.952 14.338 10.429-6.111 13.828-24.641 9.424-47.206a166.916 166.916 0 00-1.158-5.289 96.8 96.8 0 003.63-1.136c22.287-7.482 38.433-19.588 38.433-32.006 0-11.87-15.219-23.388-36.231-30.714zm-52.261-33.26c14.369-12.693 27.772-17.668 33.875-14.103 6.528 3.8 9.039 19.157 4.944 39.332-.27 1.332-.541 2.625-.888 3.918-8.575-1.959-17.266-3.369-25.995-4.153-5.022-7.287-10.507-14.26-16.455-20.802a151.216 151.216 0 014.519-4.192zm-44.69 84.306c1.97 3.408 3.979 6.816 6.103 10.146a172.621 172.621 0 01-17.922-2.938c1.699-5.641 3.824-11.478 6.296-17.433 1.777 3.447 3.592 6.856 5.523 10.225zm-11.703-47.128c5.562-1.254 11.472-2.272 17.613-3.056a231.46 231.46 0 00-5.948 9.951 231.855 231.855 0 00-5.485 10.185 188.223 188.223 0 01-6.18-17.08zm10.583 26.992c2.549-5.407 5.331-10.695 8.266-15.906 2.936-5.21 6.103-10.264 9.425-15.239a238.84 238.84 0 0117.729-.666c6.026 0 11.974.235 17.729.666a274.34 274.34 0 019.386 15.161 267.86 267.86 0 018.382 15.827 261.274 261.274 0 01-8.343 15.983c-2.936 5.211-6.064 10.264-9.348 15.279-5.755.431-11.742.627-17.806.627s-11.935-.196-17.613-.549a238.417 238.417 0 01-9.502-15.278 247.986 247.986 0 01-8.305-15.905zm69.758 20.057c1.97-3.447 3.824-6.934 5.64-10.459a183.282 183.282 0 016.527 17.354 167.472 167.472 0 01-18.154 3.134c2.086-3.29 4.056-6.659 5.987-10.029zm5.562-29.969c-1.815-3.447-3.669-6.895-5.6-10.264a256.298 256.298 0 00-5.91-9.872c6.219.784 12.167 1.841 17.729 3.134-1.777 5.798-3.862 11.439-6.219 17.002zm-39.823-44.072a171.301 171.301 0 0111.433 14.025 249.506 249.506 0 00-22.982 0 197.248 197.248 0 0111.549-14.025zm-44.806-24.015c6.489-3.839 20.897 1.646 36.077 15.279.965.862 1.931 1.802 2.935 2.742-5.987 6.542-11.51 13.515-16.57 20.802a201.14 201.14 0 00-25.957 4.074c-.502-1.998-.927-4.035-1.352-6.072-3.63-18.961-1.236-33.26 4.867-36.825zm-9.463 103.267a98.157 98.157 0 01-4.79-1.528c-8.227-2.625-17.574-6.777-24.334-12.223a17.605 17.605 0 01-7.261-11.713c0-7.169 12.205-16.336 29.819-22.565a132.239 132.239 0 016.682-2.155 210.18 210.18 0 009.463 24.916 215.922 215.922 0 00-9.579 25.268zm45.038 38.392c-6.374 5.915-13.751 10.616-21.785 13.829-4.288 2.076-9.232 2.272-13.635.509-6.142-3.604-8.691-17.433-5.215-36.041a122.93 122.93 0 011.43-6.543 190.6 190.6 0 0026.226 3.839 206.212 206.212 0 0016.687 20.92 100.468 100.468 0 01-3.708 3.487zm9.463-9.52c-3.94-4.309-7.88-9.089-11.704-14.221 3.708.157 7.532.235 11.395.235 3.978 0 7.88-.078 11.742-.274a168.162 168.162 0 01-11.433 14.26zm50.484 11.753a17.49 17.49 0 01-6.373 12.262c-6.142 3.604-19.236-1.097-33.373-13.398-1.622-1.411-3.245-2.939-4.906-4.506a193.44 193.44 0 0016.301-20.998 187.852 187.852 0 0026.342-4.113c.387 1.606.734 3.212 1.043 4.779 1.893 8.462 2.202 17.277.966 25.974zm7.03-42.114a81.2 81.2 0 01-3.283 1.019c-2.704-8.541-6.026-16.885-9.85-24.994 3.708-7.992 6.837-16.219 9.463-24.642 2.009.588 3.94 1.215 5.794 1.842 18 6.268 30.63 15.591 30.63 22.721 0 7.679-13.48 17.59-32.754 24.054zm-57.823-5.876c9.772 0 17.691-8.031 17.691-17.943 0-9.911-7.919-17.942-17.691-17.942-9.772 0-17.691 8.031-17.691 17.942 0 9.912 7.919 17.943 17.691 17.943z" fill="#fff"/></g><defs><filter id="filter0_d" x="105" y="59" width="406" height="406" filterUnits="userSpaceOnUse" color-interpolation-filters="sRGB"><feFlood flood-opacity="0" result="BackgroundImageFix"/><feColorMatrix in="SourceAlpha" values="0 0 0 0 0 0 0 0 0 0 0 0 0 0 0 0 0 0 127 0"/><feOffset dx="1" dy="1"/><feGaussianBlur stdDeviation="2"/><feColorMatrix values="0 0 0 0 0 0 0 0 0 0 0 0 0 0 0 0 0 0 0.25 0"/><feBlend in2="BackgroundImageFix" result="effect1_dropShadow"/><feBlend in="SourceGraphic" in2="effect1_dropShadow" result="shape"/></filter></defs></svg>