<svg xmlns="http://www.w3.org/2000/svg" viewBox="0 0 30 28"><g id="Layer_2" data-name="Layer 2"><g id="Layer_1-2" data-name="Layer 1"><path d="M29.88,12.12a2.34,2.34,0,0,0-3.13-1.9,1.37,1.37,0,0,1-1.68-.75A12.36,12.36,0,0,0,24,7.54a1.33,1.33,0,0,1,.19-1.83,2.33,2.33,0,0,0-.09-3.65A14.75,14.75,0,0,0,20.82.19,2.23,2.23,0,0,0,19.9,0a2.31,2.31,0,0,0-2.3,1.93A1.32,1.32,0,0,1,16.1,3a10.21,10.21,0,0,0-2.21,0A1.32,1.32,0,0,1,12.4,1.93,2.31,2.31,0,0,0,10.1,0a2.23,2.23,0,0,0-.92.19A14.75,14.75,0,0,0,5.94,2.06a2.33,2.33,0,0,0-.09,3.65A1.33,1.33,0,0,1,6,7.54,12.36,12.36,0,0,0,4.93,9.47a1.33,1.33,0,0,1-1.69.75,2.28,2.28,0,0,0-.81-.15,2.34,2.34,0,0,0-2.31,2,14.79,14.79,0,0,0,0,3.76,2.35,2.35,0,0,0,3.13,1.9,1.37,1.37,0,0,1,1.68.75A12.36,12.36,0,0,0,6,20.46a1.33,1.33,0,0,1-.19,1.83,2.33,2.33,0,0,0,.09,3.65,14.75,14.75,0,0,0,3.24,1.87,2.23,2.23,0,0,0,.92.19,2.32,2.32,0,0,0,2.3-1.93A1.33,1.33,0,0,1,13.9,25a11.55,11.55,0,0,0,2.2,0,1.33,1.33,0,0,1,1.5,1.08A2.31,2.31,0,0,0,19.9,28a2.23,2.23,0,0,0,.92-.19,14.75,14.75,0,0,0,3.24-1.87,2.33,2.33,0,0,0,.09-3.65A1.33,1.33,0,0,1,24,20.46a11.92,11.92,0,0,0,1.11-1.93,1.34,1.34,0,0,1,1.69-.75,2.28,2.28,0,0,0,.81.15,2.34,2.34,0,0,0,2.31-2,14.79,14.79,0,0,0,0-3.76M20,14a5,5,0,1,1-5-5,5,5,0,0,1,5,5"/></g></g></svg>